<?xml version="1.0" standalone="no"?>
<!DOCTYPE svg PUBLIC "-//W3C//DTD SVG 20010904//EN"
 "http://www.w3.org/TR/2001/REC-SVG-20010904/DTD/svg10.dtd">
<svg version="1.0" xmlns="http://www.w3.org/2000/svg"
 width="24.000000pt" height="24.000000pt" viewBox="0 0 24.000000 24.000000"
 preserveAspectRatio="xMidYMid meet">

<g transform="translate(0.000000,24.000000) scale(0.100000,-0.100000)"
fill="#000000" stroke="none">
<path d="M10 230 c0 -5 7 -10 15 -10 12 0 15 -18 15 -100 0 -82 -3 -100 -15
-100 -8 0 -15 -4 -15 -10 0 -14 129 -13 169 1 56 20 68 74 25 108 -15 12 -22
21 -16 21 17 0 32 34 26 57 -3 11 -17 26 -30 32 -31 14 -174 15 -174 1z m150
-30 c16 -30 -4 -60 -40 -60 -28 0 -30 2 -30 40 0 38 2 40 30 40 19 0 33 -7 40
-20z m6 -105 c15 -23 15 -27 0 -51 -13 -18 -24 -24 -44 -22 -25 3 -27 7 -30
51 -3 46 -3 47 27 47 22 0 35 -7 47 -25z"/>
</g>
</svg>
