<?xml version="1.0" standalone="no"?>
<!DOCTYPE svg PUBLIC "-//W3C//DTD SVG 20010904//EN"
 "http://www.w3.org/TR/2001/REC-SVG-20010904/DTD/svg10.dtd">
<svg version="1.0" xmlns="http://www.w3.org/2000/svg"
 width="24.000000pt" height="24.000000pt" viewBox="0 0 24.000000 24.000000"
 preserveAspectRatio="xMidYMid meet">

<g transform="translate(0.000000,24.000000) scale(0.100000,-0.100000)"
fill="#000000" stroke="none">
<path d="M135 210 c-42 -44 -22 -54 31 -15 18 13 23 14 33 1 10 -11 6 -21 -20
-51 -27 -30 -36 -35 -60 -30 -22 5 -29 3 -29 -8 0 -16 20 -27 48 -27 24 0 102
81 102 106 0 26 -29 54 -56 54 -11 0 -33 -13 -49 -30z"/>
<path d="M42 117 c-46 -46 -52 -75 -24 -100 27 -25 55 -21 87 13 42 44 22 54
-31 15 -18 -13 -23 -14 -33 -1 -10 11 -6 21 20 51 27 30 36 35 60 30 22 -5 29
-3 29 8 0 16 -20 27 -49 27 -9 0 -36 -19 -59 -43z"/>
</g>
</svg>
