<?xml version="1.0" standalone="no"?>
<!DOCTYPE svg PUBLIC "-//W3C//DTD SVG 20010904//EN"
 "http://www.w3.org/TR/2001/REC-SVG-20010904/DTD/svg10.dtd">
<svg version="1.0" xmlns="http://www.w3.org/2000/svg"
 width="24.000000pt" height="24.000000pt" viewBox="0 0 24.000000 24.000000"
 preserveAspectRatio="xMidYMid meet">

<g transform="translate(0.000000,24.000000) scale(0.100000,-0.100000)"
fill="#000000" stroke="none">
<path d="M30 200 c0 -11 5 -20 10 -20 6 0 10 5 10 10 0 6 14 10 30 10 l30 0 0
-80 c0 -64 -3 -80 -15 -80 -8 0 -15 -4 -15 -10 0 -5 18 -10 40 -10 22 0 40 5
40 10 0 6 -7 10 -15 10 -12 0 -15 16 -15 80 l0 80 30 0 c17 0 30 -4 30 -10 0
-5 5 -10 10 -10 6 0 10 9 10 20 0 19 -7 20 -90 20 -83 0 -90 -1 -90 -20z"/>
</g>
</svg>
